<svg xmlns="http://www.w3.org/2000/svg" width="361" height="50" viewBox="0 0 361 50">
  <g id="Group_3177" data-name="Group 3177" transform="translate(-7 -67)">
    <g id="Intersection_1" data-name="Intersection 1" transform="translate(1401.998 51.998)" fill="#fcfcfc">
      <path d="M -1034.498291015625 64.50162506103516 L -1394.498291015625 64.50162506103516 L -1394.498291015625 41.59416198730469 C -1390.595703125 41.34489059448242 -1387.499877929688 38.22026443481445 -1387.499877929688 34.41689682006836 C -1387.499877929688 30.61237335205078 -1390.596069335938 27.48747062683105 -1394.498291015625 27.2386646270752 L -1394.498291015625 15.50212287902832 L -1034.498291015625 15.50212287902832 L -1034.498291015625 27.23905754089355 C -1038.401123046875 27.49072265625 -1041.497680664062 30.61566352844238 -1041.497680664062 34.41689682006836 C -1041.497680664062 38.22207260131836 -1038.401123046875 41.34666442871094 -1034.498291015625 41.59439849853516 L -1034.498291015625 64.50162506103516 Z" stroke="none"/>
      <path d="M -1034.998291015625 64.00162506103516 L -1034.998291015625 42.0504035949707 C -1038.938842773438 41.57559204101562 -1041.997680664062 38.33327102661133 -1041.997680664062 34.41689682006836 C -1041.997680664062 30.50428581237793 -1038.93896484375 27.26170539855957 -1034.998291015625 26.78349685668945 L -1034.998291015625 16.00212287902832 L -1393.998291015625 16.00212287902832 L -1393.998291015625 26.78277778625488 C -1390.058349609375 27.25860595703125 -1386.999877929688 30.50123596191406 -1386.999877929688 34.41689682006836 C -1386.999877929688 38.33142852783203 -1390.05810546875 41.57370376586914 -1393.998291015625 42.04995727539062 L -1393.998291015625 64.00162506103516 L -1034.998291015625 64.00162506103516 M -1033.998291015625 65.00162506103516 L -1394.998291015625 65.00162506103516 L -1394.998291015625 41.11021423339844 C -1391.13818359375 41.10821533203125 -1387.999877929688 38.1062126159668 -1387.999877929688 34.41689682006836 C -1387.999877929688 30.7266674041748 -1391.140014648438 27.72380447387695 -1394.998291015625 27.72271347045898 L -1394.998291015625 15.00212287902832 L -1033.998291015625 15.00212287902832 L -1033.998291015625 27.72271347045898 C -1037.859375 27.72721290588379 -1040.997680664062 30.72962379455566 -1040.997680664062 34.41689682006836 C -1040.997680664062 38.10780334472656 -1037.857543945312 41.11021423339844 -1033.998291015625 41.11021423339844 L -1033.998291015625 65.00162506103516 Z" stroke="none" fill="#ebeded"/>
    </g>
    <line id="Line_147" data-name="Line 147" x2="339" transform="translate(18.5 88.5)" fill="none" stroke="#cbd0d3" stroke-width="0.5" stroke-dasharray="5"/>
  </g>
</svg>
