<svg xmlns="http://www.w3.org/2000/svg" width="18.833" height="15.953" viewBox="0 0 18.833 15.953">
  <g id="Group_49" data-name="Group 49" transform="translate(0 0)">
    <path id="Path_50" data-name="Path 50" d="M4322.339,6021.646a.647.647,0,0,1-.309-.079.635.635,0,0,1-.333-.558v-2.5h-2.034a6.41,6.41,0,1,1,0-12.819h5.931a6.4,6.4,0,0,1,3.344,11.885l-.051.037-6.2,3.933A.649.649,0,0,1,4322.339,6021.646Zm-2.675-14.68a5.136,5.136,0,1,0,0,10.272h2.675a.639.639,0,0,1,.641.637v1.972l5.137-3.257a.615.615,0,0,1,.088-.061,5.126,5.126,0,0,0-2.611-9.563Z" transform="translate(-4313.213 -6005.693)" fill="#1b75bb"/>
    <path id="Path_51" data-name="Path 51" d="M4332.1,6029.608a1.159,1.159,0,1,1-1.159-1.151A1.156,1.156,0,0,1,4332.1,6029.608Z" transform="translate(-4325.763 -6022.938)" fill="#1b75bb"/>
    <path id="Path_52" data-name="Path 52" d="M4349.588,6029.608a1.159,1.159,0,1,1-1.159-1.151A1.156,1.156,0,0,1,4349.588,6029.608Z" transform="translate(-4339.012 -6022.938)" fill="#1b75bb"/>
    <path id="Path_53" data-name="Path 53" d="M4367.076,6029.608a1.159,1.159,0,1,1-1.158-1.151A1.155,1.155,0,0,1,4367.076,6029.608Z" transform="translate(-4352.261 -6022.938)" fill="#1b75bb"/>
  </g>
</svg>
