<svg xmlns="http://www.w3.org/2000/svg" width="232" height="198" viewBox="0 0 232 198">
    <defs>
        <linearGradient id="a" x1="0%" y1="50.015%" y2="50.015%">
            <stop offset="0%" stop-color="#D21E63"/>
            <stop offset="11%" stop-color="#D32B6C"/>
            <stop offset="29%" stop-color="#D53B76"/>
            <stop offset="43%" stop-color="#D5407A"/>
            <stop offset="100%" stop-color="#B244AE"/>
        </linearGradient>
    </defs>
    <path fill="url(#a)" fill-rule="nonzero" d="M223.05 0H8.892a8.836 8.836 0 0 0-6.305 2.585A8.823 8.823 0 0 0 0 8.885v180.112a8.94 8.94 0 0 0 2.58 6.342A8.953 8.953 0 0 0 8.892 198H223.05c4.952-.032 8.95-4.054 8.95-9.003V8.885C231.968 3.97 227.97 0 223.05 0zm-8.892 180.112H17.665V160.46l45.988-45.954 31.915 31.891 19.019 18.888a5.36 5.36 0 0 0 7.596 0 5.47 5.47 0 0 0 0-7.531l-15.31-15.24 43.28-43.248 64.005 63.842v17.005zm0-32.127l-59.943-59.723a5.36 5.36 0 0 0-7.596 0l-47.106 47.072-31.856-31.95a5.302 5.302 0 0 0-7.478 0l-42.514 41.953V17.652h196.493v130.333zM67.245 89.556a31.09 31.09 0 0 0 28.798-19.22 31.052 31.052 0 0 0-6.862-33.92 31.107 31.107 0 0 0-34.008-6.534 31.067 31.067 0 0 0-18.96 28.96c.129 17.072 13.947 30.88 31.032 31.008v-.294zm0-51.545c11.267-.16 20.537 8.826 20.72 20.085.183 11.259-8.79 20.54-20.057 20.746-11.267.205-20.573-8.743-20.801-20-.033-11.287 9.08-20.472 20.373-20.536l-.235-.295z"/>
</svg>
