<svg xmlns="http://www.w3.org/2000/svg" width="31.266" height="30.907" viewBox="0 0 31.266 30.907">
  <g id="Component_21_1" data-name="Component 21 – 1" transform="translate(1.5 1.5)">
    <path id="Path_58" data-name="Path 58" d="M3661.71,449.743a8.67,8.67,0,0,0-14.842,2.472,6.515,6.515,0,0,0-3.13-3.73,6.588,6.588,0,0,0-8.419,1.947.24.24,0,0,0,0,.276.243.243,0,0,0,.253.1,9.175,9.175,0,0,1,4.116.075.249.249,0,0,0,.2-.036.235.235,0,0,0,.1-.168l.076-.551.659,1.024a.234.234,0,0,0,.115.1,9.57,9.57,0,0,1,1.146.509c.274.146.55.312.854.515a.244.244,0,0,0,.237.017.251.251,0,0,0,.144-.192l.064-.58.563,1.492a.23.23,0,0,0,.065.094,9.2,9.2,0,0,1,2.044,2.6,6.836,6.836,0,0,0-5.084-2.313,6.793,6.793,0,0,0-6.8,6.995.235.235,0,0,0,.166.221.221.221,0,0,0,.078.013.243.243,0,0,0,.186-.082,9.463,9.463,0,0,1,3.427-2.54.243.243,0,0,0,.134-.146.232.232,0,0,0-.022-.194l-.3-.524,1.211.436a.3.3,0,0,0,.151,0,10.416,10.416,0,0,1,1.266-.306c.313-.053.649-.089,1.033-.115a.239.239,0,0,0,.195-.133.23.23,0,0,0-.01-.238l-.333-.545,1.444.884a.331.331,0,0,0,.11.04,9.582,9.582,0,0,1,3.377.856l-3.052,16.165a.234.234,0,0,0,.05.2.254.254,0,0,0,.186.089l6.463.005h.006a.245.245,0,0,0,.248-.244.31.31,0,0,0-.016-.09l-1.516-16.122a9.413,9.413,0,0,1,2.676-1.242.181.181,0,0,0,.1-.059l1.166-1.092-.2.545a.232.232,0,0,0,.041.234.249.249,0,0,0,.224.089c.362-.048.684-.081.993-.095a9.761,9.761,0,0,1,1.25.037.246.246,0,0,0,.153-.037l1.038-.635-.174.53a.258.258,0,0,0,.021.2.226.226,0,0,0,.162.115,9.182,9.182,0,0,1,3.734,1.715.246.246,0,0,0,.276.02.232.232,0,0,0,.114-.252,6.548,6.548,0,0,0-9.44-4.681l.609-1.968.188,1.1a.247.247,0,0,0,.389.155c.394-.3.754-.547,1.1-.763a13.976,13.976,0,0,1,1.494-.777.21.21,0,0,0,.113-.1l.9-1.614.191.947a.244.244,0,0,0,.313.185,12.271,12.271,0,0,1,5.51-.439.25.25,0,0,0,.25-.117.242.242,0,0,0-.026-.275" transform="translate(-3634.056 -446.57)" fill="#fff" stroke="#8f8f8f" stroke-linecap="round" stroke-linejoin="round" stroke-width="3"/>
    <g id="Group_3482" data-name="Group 3482">
      <path id="Path_58-2" data-name="Path 58" d="M3661.71,449.743a8.67,8.67,0,0,0-14.842,2.472,6.515,6.515,0,0,0-3.13-3.73,6.588,6.588,0,0,0-8.419,1.947.24.24,0,0,0,0,.276.243.243,0,0,0,.253.1,9.175,9.175,0,0,1,4.116.075.249.249,0,0,0,.2-.036.235.235,0,0,0,.1-.168l.076-.551.659,1.024a.234.234,0,0,0,.115.1,9.57,9.57,0,0,1,1.146.509c.274.146.55.312.854.515a.244.244,0,0,0,.237.017.251.251,0,0,0,.144-.192l.064-.58.563,1.492a.23.23,0,0,0,.065.094,9.2,9.2,0,0,1,2.044,2.6,6.836,6.836,0,0,0-5.084-2.313,6.793,6.793,0,0,0-6.8,6.995.235.235,0,0,0,.166.221.221.221,0,0,0,.078.013.243.243,0,0,0,.186-.082,9.463,9.463,0,0,1,3.427-2.54.243.243,0,0,0,.134-.146.232.232,0,0,0-.022-.194l-.3-.524,1.211.436a.3.3,0,0,0,.151,0,10.416,10.416,0,0,1,1.266-.306c.313-.053.649-.089,1.033-.115a.239.239,0,0,0,.195-.133.23.23,0,0,0-.01-.238l-.333-.545,1.444.884a.331.331,0,0,0,.11.04,9.582,9.582,0,0,1,3.377.856l-3.052,16.165a.234.234,0,0,0,.05.2.254.254,0,0,0,.186.089l6.463.005h.006a.245.245,0,0,0,.248-.244.31.31,0,0,0-.016-.09l-1.516-16.122a9.413,9.413,0,0,1,2.676-1.242.181.181,0,0,0,.1-.059l1.166-1.092-.2.545a.232.232,0,0,0,.041.234.249.249,0,0,0,.224.089c.362-.048.684-.081.993-.095a9.761,9.761,0,0,1,1.25.037.246.246,0,0,0,.153-.037l1.038-.635-.174.53a.258.258,0,0,0,.021.2.226.226,0,0,0,.162.115,9.182,9.182,0,0,1,3.734,1.715.246.246,0,0,0,.276.02.232.232,0,0,0,.114-.252,6.548,6.548,0,0,0-9.44-4.681l.609-1.968.188,1.1a.247.247,0,0,0,.389.155c.394-.3.754-.547,1.1-.763a13.976,13.976,0,0,1,1.494-.777.21.21,0,0,0,.113-.1l.9-1.614.191.947a.244.244,0,0,0,.313.185,12.271,12.271,0,0,1,5.51-.439.25.25,0,0,0,.25-.117.242.242,0,0,0-.026-.275" transform="translate(-3634.056 -446.57)" fill="#fff"/>
    </g>
  </g>
</svg>
