<svg xmlns="http://www.w3.org/2000/svg" xmlns:xlink="http://www.w3.org/1999/xlink" width="302.621" height="60.724" viewBox="0 0 302.621 60.724">
  <defs>
    <filter id="Rectangle_1" x="0" y="0" width="302.621" height="60.724" filterUnits="userSpaceOnUse">
      <feOffset dy="3" input="SourceAlpha"/>
      <feGaussianBlur stdDeviation="3" result="blur"/>
      <feFlood flood-opacity="0.161"/>
      <feComposite operator="in" in2="blur"/>
      <feComposite in="SourceGraphic"/>
    </filter>
  </defs>
  <g id="Group_2817" data-name="Group 2817" transform="translate(-532.379 -672.982)">
    <g id="Group_2695" data-name="Group 2695" transform="translate(541.379 678.982)">
      <g id="Symbol_65_16" data-name="Symbol 65 – 16" transform="translate(0)">
        <g transform="matrix(1, 0, 0, 1, -9, -6)" filter="url(#Rectangle_1)">
          <rect id="Rectangle_1-2" data-name="Rectangle 1" width="284.621" height="42.724" rx="5" transform="translate(9 6)" fill="#16b53a"/>
        </g>
      </g>
      <text id="BOOK" transform="translate(114.377 28.159)" fill="#fff" font-size="16" font-family="ArialMT, Arial"><tspan x="0" y="0">BOOK</tspan></text>
    </g>
    <g id="round-arrow_back_ios-24px" transform="translate(737.157 710.228) rotate(180)">
      <g id="Bounding_Boxes" transform="translate(0 0)">
        <path id="Path_5" data-name="Path 5" d="M0,0H20.476V20.476H0Z" transform="translate(0 0)" fill="none" opacity="0.87"/>
      </g>
      <g id="Rounded" transform="translate(5.33 2.237)">
        <path id="Path_6" data-name="Path 6" d="M8.85.314h0a1.066,1.066,0,0,0-1.51,0L.25,7.4a.85.85,0,0,0,0,1.2l7.09,7.09a1.066,1.066,0,0,0,1.51,0h0a1.066,1.066,0,0,0,0-1.51L2.673,8,8.858,1.815A1.063,1.063,0,0,0,8.85.314Z" fill="#fff"/>
      </g>
    </g>
  </g>
</svg>
