<svg xmlns="http://www.w3.org/2000/svg" width="22.781" height="17.361" viewBox="0 0 22.781 17.361">
  <path id="Icon_awesome-sign-out-alt" data-name="Icon awesome-sign-out-alt" d="M22.466,13.947l-7.594,7.594a1.087,1.087,0,0,1-1.853-.768V16.433H6.871a1.082,1.082,0,0,1-1.085-1.085V11.009A1.082,1.082,0,0,1,6.871,9.924h6.148V5.584a1.087,1.087,0,0,1,1.853-.768l7.594,7.594A1.094,1.094,0,0,1,22.466,13.947ZM8.679,21.315V19.507a.544.544,0,0,0-.542-.542h-3.8a1.445,1.445,0,0,1-1.446-1.446V8.839A1.445,1.445,0,0,1,4.339,7.392h3.8a.544.544,0,0,0,.542-.542V5.042A.544.544,0,0,0,8.137,4.5h-3.8A4.341,4.341,0,0,0,0,8.839v8.679a4.341,4.341,0,0,0,4.339,4.339h3.8A.544.544,0,0,0,8.679,21.315Z" transform="translate(0 -4.499)" fill="#E82064"/>
</svg>
