<svg xmlns="http://www.w3.org/2000/svg" width="26.319" height="26.319" viewBox="0 0 26.319 26.319">
  <g id="Group_2965" data-name="Group 2965" transform="translate(-130.897 -613.897)">
    <circle id="Ellipse_339" data-name="Ellipse 339" cx="13.16" cy="13.16" r="13.16" transform="translate(130.897 613.897)" fill="#8f8f8f"/>
    <g id="Group_2504" data-name="Group 2504" transform="translate(136.671 619.274)">
      <g id="Group_2461" data-name="Group 2461" transform="translate(0 0)">
        <g id="Group_2460" data-name="Group 2460" transform="translate(0 0)">
          <path id="Union_1" data-name="Union 1" d="M1.2,7.737A6.422,6.422,0,0,1,0,4.21a4.238,4.238,0,0,1,8.476,0,6.405,6.405,0,0,1-1.2,3.527A3.852,3.852,0,0,1,4.238,9.61,3.852,3.852,0,0,1,1.2,7.737Z" transform="translate(3.144)" fill="#fff" stroke="rgba(0,0,0,0)" stroke-width="1"/>
          <path id="Union_2" data-name="Union 2" d="M.113,6.919A.346.346,0,0,1,0,6.664V6.657A7.278,7.278,0,0,1,1.173,2.69,7.382,7.382,0,0,1,4.212.032.352.352,0,0,1,4.606.1,3.954,3.954,0,0,0,7.382,1.36,3.957,3.957,0,0,0,10.159.1a.352.352,0,0,1,.394-.068A7.379,7.379,0,0,1,13.591,2.69a7.264,7.264,0,0,1,1.173,3.967v.007a.345.345,0,0,1-.113.255,10.839,10.839,0,0,1-7.27,2.786A10.834,10.834,0,0,1,.113,6.919Z" transform="translate(0 9.457)" fill="#fff" stroke="rgba(0,0,0,0)" stroke-width="1"/>
        </g>
      </g>
    </g>
  </g>
</svg>
