<svg xmlns="http://www.w3.org/2000/svg" width="23" height="26" viewBox="0 0 23 26">
    <g fill="#707070" fill-rule="evenodd">
        <path d="M1.84 22.09c.163-.506.3-1.02.41-1.54A6.35 6.35 0 0 0 1.89 17a37.3 37.3 0 0 1-1.61-4.51 8.51 8.51 0 0 1 2.88-8.82.63.63 0 0 0 .25-.73 2.42 2.42 0 0 1 4.47-1.7.55.55 0 0 0 .63.35A8.85 8.85 0 0 1 17 7c.52 1.25 1 2.52 1.47 3.78a6.37 6.37 0 0 0 2.89 3.33c.332.202.616.475.83.8a1.51 1.51 0 0 1-.75 2.34A4902.72 4902.72 0 0 1 4 23.87c-1.15.45-2.15-.3-2.16-1.78zM6.73 24.05l5.78-2.22a2.93 2.93 0 0 1-1.9 3.55 3 3 0 0 1-3.88-1.33z"/>
        <path fill-rule="nonzero" d="M1.84 22.09c.163-.506.3-1.02.41-1.54A6.35 6.35 0 0 0 1.89 17a37.3 37.3 0 0 1-1.61-4.51 8.51 8.51 0 0 1 2.88-8.82.63.63 0 0 0 .25-.73 2.42 2.42 0 0 1 4.47-1.7.55.55 0 0 0 .63.35A8.85 8.85 0 0 1 17 7c.52 1.25 1 2.52 1.47 3.78a6.37 6.37 0 0 0 2.89 3.33c.332.202.616.475.83.8a1.51 1.51 0 0 1-.75 2.34A4902.72 4902.72 0 0 1 4 23.87c-1.15.45-2.15-.3-2.16-1.78zM6.73 24.05l5.78-2.22a2.93 2.93 0 0 1-1.9 3.55 3 3 0 0 1-3.88-1.33z"/>
    </g>
</svg>
