<svg xmlns="http://www.w3.org/2000/svg" width="19.375" height="22.887" viewBox="0 0 19.375 22.887">
  <g id="Group_3430" data-name="Group 3430" transform="translate(-588.619 -790)">
    <path id="Icon_awesome-paypal" data-name="Icon awesome-paypal" d="M5.624,15.515c-.177.969-.878,5.486-1.085,6.763-.015.091-.05.126-.151.126H.622a.613.613,0,0,1-.611-.7L2.969,2.933A1.025,1.025,0,0,1,3.978,2.08c7.686,0,8.332-.187,10.3.575,3.033,1.176,3.311,4.012,2.221,7.08-1.085,3.159-3.659,4.517-7.07,4.557-2.19.035-3.507-.353-3.8,1.221Zm12.4-7.262c-.091-.066-.126-.091-.151.066a11.811,11.811,0,0,1-.444,1.7c-2.014,5.743-7.6,5.243-10.32,5.243a.508.508,0,0,0-.55.474C5.417,22.817,5.19,24.3,5.19,24.3a.537.537,0,0,0,.535.651h3.2a.905.905,0,0,0,.878-.752c.035-.273-.056.308.727-4.608.232-1.11.722-.994,1.479-.994,3.583,0,6.379-1.453,7.212-5.667.328-1.756.232-3.6-1.2-4.673Z" transform="translate(588.613 787.94)" fill="#0e5084"/>
    <path id="Icon_awesome-paypal-2" data-name="Icon awesome-paypal" d="M18.023,8.252c-.091-.066-.126-.091-.151.066a11.811,11.811,0,0,1-.444,1.7c-2.014,5.743-7.6,5.243-10.32,5.243a.508.508,0,0,0-.55.474C5.417,22.817,5.19,24.3,5.19,24.3a.537.537,0,0,0,.535.651h3.2a.905.905,0,0,0,.878-.752c.035-.273-.056.308.727-4.608.232-1.11.722-.994,1.479-.994,3.583,0,6.379-1.453,7.212-5.667.328-1.756.232-3.6-1.2-4.673Z" transform="translate(588.613 787.94)" fill="#1b75bb"/>
  </g>
</svg>
