<svg xmlns="http://www.w3.org/2000/svg" width="20" height="22" viewBox="0 0 20 22">
    <defs>
        <linearGradient id="a" x1="15.334%" x2="82.152%" y1="24.22%" y2="68.162%">
            <stop offset="0%" stop-color="#62D04D"/>
            <stop offset="100%" stop-color="#35933E"/>
        </linearGradient>
    </defs>
    <path fill="url(#a)" fill-rule="nonzero" d="M15.3 4A8 8 0 0 0 4 4a8 8 0 0 0-.95 10.14 7.91 7.91 0 0 0 3.69 2.96.79.79 0 0 1 .31.2L9.66 20l2.6-2.66a.64.64 0 0 1 .3-.22A8 8 0 0 0 15.3 4m-2.93 2.92A3.82 3.82 0 0 0 9.66 5.8a3.82 3.82 0 0 0-3.84 3.84 3.83 3.83 0 0 0 6.55 2.71 3.77 3.77 0 0 0 1.13-2.71 3.83 3.83 0 0 0-1.13-2.72M9.66 4.79a4.8 4.8 0 0 1 3.43 1.41 4.89 4.89 0 1 1-3.43-1.41m0-4.79a9.67 9.67 0 0 1 3.68 18.62l-3.08 3.13a.83.83 0 0 1-1.2 0L6 18.62A9.68 9.68 0 0 1 9.66 0"/>
</svg>
