<svg xmlns="http://www.w3.org/2000/svg" width="23.732" height="23.873" viewBox="0 0 23.732 23.873">
  <path id="Path_54" data-name="Path 54" d="M3670.515,5997.7a7.428,7.428,0,0,0-12.711,2.111,5.585,5.585,0,0,0-2.678-3.188,5.646,5.646,0,0,0-7.214,1.666.208.208,0,0,0,.216.323,7.926,7.926,0,0,1,3.521.064.208.208,0,0,0,.169-.029.2.2,0,0,0,.089-.144l.065-.475.562.878a.219.219,0,0,0,.1.083,7.626,7.626,0,0,1,1.712.876.21.21,0,0,0,.323-.15l.057-.493.483,1.273a.205.205,0,0,0,.057.083,7.859,7.859,0,0,1,1.749,2.224,5.848,5.848,0,0,0-4.357-1.98,5.729,5.729,0,0,0-.98.084,5.808,5.808,0,0,0-4.845,5.9.2.2,0,0,0,.143.188.164.164,0,0,0,.067.014.213.213,0,0,0,.161-.075,8.086,8.086,0,0,1,2.932-2.17.21.21,0,0,0,.114-.124.213.213,0,0,0-.016-.168l-.26-.448,1.04.371a.207.207,0,0,0,.131,0,9.955,9.955,0,0,1,1.083-.262c.268-.042.556-.076.879-.1a.209.209,0,0,0,.165-.318l-.288-.465,1.238.755a.234.234,0,0,0,.1.031,8.35,8.35,0,0,1,2.889.733l-2.616,13.831a.211.211,0,0,0,.044.171.216.216,0,0,0,.162.075l5.532.006h.01a.206.206,0,0,0,.192-.285l-1.3-13.791a8.082,8.082,0,0,1,2.294-1.064.191.191,0,0,0,.086-.047l.995-.94-.167.471a.2.2,0,0,0,.036.2.206.206,0,0,0,.189.075,8.217,8.217,0,0,1,.851-.077,8.679,8.679,0,0,1,1.073.027.212.212,0,0,0,.129-.027l.892-.545-.148.453a.193.193,0,0,0,.016.168.211.211,0,0,0,.138.1,7.823,7.823,0,0,1,3.2,1.465.211.211,0,0,0,.239.016.207.207,0,0,0,.1-.213,5.617,5.617,0,0,0-8.086-4.008l.522-1.681.162.942a.209.209,0,0,0,.333.131,10.672,10.672,0,0,1,.944-.648,11.161,11.161,0,0,1,1.278-.667.2.2,0,0,0,.1-.088l.768-1.379.162.811a.2.2,0,0,0,.1.138.225.225,0,0,0,.169.023,10.509,10.509,0,0,1,4.718-.381.208.208,0,0,0,.214-.1.2.2,0,0,0-.019-.232" transform="translate(-3646.83 -5994.987)" fill="#fa6980"/>
</svg>
