<svg id="Group_2788" data-name="Group 2788" xmlns="http://www.w3.org/2000/svg" width="18.127" height="18.127" viewBox="0 0 18.127 18.127">
  <path id="Path_1428" data-name="Path 1428" d="M267.063,381.89a9.063,9.063,0,1,0,9.064,9.063,9.074,9.074,0,0,0-9.064-9.063Zm0,16.2a7.135,7.135,0,1,1,7.136-7.135,7.143,7.143,0,0,1-7.136,7.135Zm0,0" transform="translate(-258 -381.89)" fill="#a6adb4"/>
  <path id="Path_1429" data-name="Path 1429" d="M298.819,401h-4.073v-4.9a.746.746,0,1,0-1.492,0v5.643a.746.746,0,0,0,.746.747h4.819a.746.746,0,1,0,0-1.492Zm0,0" transform="translate(-285.032 -392.215)" fill="#a6adb4"/>
</svg>
