<svg xmlns="http://www.w3.org/2000/svg" width="17" height="17" viewBox="0 0 17 17">
    <defs>
        <linearGradient id="a" x1="50%" x2="50%" y1="0%" y2="100%">
            <stop offset="0%" stop-color="#E71E64"/>
            <stop offset="10%" stop-color="#E82C6C"/>
            <stop offset="28%" stop-color="#E93A76"/>
            <stop offset="43%" stop-color="#EA407A"/>
            <stop offset="100%" stop-color="#AD529D"/>
        </linearGradient>
    </defs>
    <path fill="url(#a)" fill-rule="nonzero" d="M4.17 8.09a.91.91 0 0 1 1.32 0l1.23 1.22a.46.46 0 0 0 .62 0l4.17-4.17a.94.94 0 0 1 1.32 1.33l-5.14 5.14a.94.94 0 0 1-1.33 0l-2.19-2.2a.91.91 0 0 1 0-1.32zM0 8.5A8.5 8.5 0 1 0 8.5 0 8.51 8.51 0 0 0 0 8.5z"/>
</svg>
