<svg xmlns="http://www.w3.org/2000/svg" width="36.929" height="24" viewBox="0 0 36.929 24">
  <g id="Icon_ionic-ios-people" data-name="Icon ionic-ios-people" transform="translate(-2.215 -7.749)">
    <path id="Path_1490" data-name="Path 1490" d="M27.322,26.213c-.921-.329-2.426-.345-3.092-.6a4.369,4.369,0,0,1-1.431-.666A8.843,8.843,0,0,1,22.56,22.6a3.787,3.787,0,0,0,.814-1.151,12.8,12.8,0,0,0,.395-2.262s.543.23.757-.855c.181-.938.526-1.431.436-2.122s-.477-.526-.477-.526.477-.7.477-3.076c0-2.451-1.851-4.861-5.313-4.861s-5.321,2.418-5.321,4.861c0,2.377.469,3.076.469,3.076s-.387-.164-.477.526.247,1.184.436,2.122c.214,1.094.757.855.757.855a12.921,12.921,0,0,0,.395,2.262A3.787,3.787,0,0,0,16.72,22.6a8.843,8.843,0,0,1-.239,2.344,4.2,4.2,0,0,1-1.431.658c-.658.255-2.163.288-3.092.617a5.8,5.8,0,0,0-3.767,5.527H31.081A5.793,5.793,0,0,0,27.322,26.213Z" transform="translate(1.014)" fill="#8c8c8c"/>
    <path id="Path_1491" data-name="Path 1491" d="M11.139,21.62a5.584,5.584,0,0,0,2.747-.765c-1.275-1.933-.584-4.186-.847-6.292A3.47,3.47,0,0,0,9.2,11.208H9.165a3.481,3.481,0,0,0-3.808,3.356c-.263,2.1.469,4.606-.839,6.292a5.167,5.167,0,0,0,2.755.683h0a4.165,4.165,0,0,1-.082,1.382,2.077,2.077,0,0,1-.987.452,19.083,19.083,0,0,0-2.13.592,3.463,3.463,0,0,0-1.859,3.06h6.6a5.909,5.909,0,0,1,2.632-2.451,5.523,5.523,0,0,1,2.031-.428s.313-.493-.716-.683a7.011,7.011,0,0,1-1.579-.551C11.032,22.731,11.139,21.62,11.139,21.62Z" transform="translate(0 0.587)" fill="#8c8c8c"/>
    <path id="Path_1492" data-name="Path 1492" d="M26.555,21.62a5.584,5.584,0,0,1-2.747-.765c1.275-1.933.584-4.186.847-6.292A3.47,3.47,0,0,1,28.5,11.208h.033a3.481,3.481,0,0,1,3.808,3.356c.263,2.1-.469,4.606.839,6.292a5.167,5.167,0,0,1-2.755.683h0A4.165,4.165,0,0,0,30.5,22.92a2.077,2.077,0,0,0,.987.452,19.083,19.083,0,0,1,2.13.592,3.463,3.463,0,0,1,1.859,3.06h-6.6a5.909,5.909,0,0,0-2.632-2.451,5.523,5.523,0,0,0-2.031-.428s-.313-.493.716-.683a7.011,7.011,0,0,0,1.579-.551C26.662,22.731,26.555,21.62,26.555,21.62Z" transform="translate(3.665 0.587)" fill="#8c8c8c"/>
  </g>
</svg>
