<svg xmlns="http://www.w3.org/2000/svg" xmlns:xlink="http://www.w3.org/1999/xlink" width="46" height="57.123" viewBox="0 0 46 57.123">
  <defs>
    <linearGradient id="linear-gradient" x1="0.5" x2="0.5" y2="1" gradientUnits="objectBoundingBox">
      <stop offset="0" stop-color="#e82064"/>
      <stop offset="0.102" stop-color="#e92b6b"/>
      <stop offset="0.285" stop-color="#ea3a76"/>
      <stop offset="0.434" stop-color="#eb407a"/>
      <stop offset="1" stop-color="#ae529e"/>
    </linearGradient>
  </defs>
  <g id="Group_6118" data-name="Group 6118" transform="translate(-7807.705 -8857.695)">
    <g id="Group_6106" data-name="Group 6106" transform="translate(2265.705 567.971)">
      <g id="Group_6099" data-name="Group 6099" transform="translate(5233.671 7824.826)">
        <path id="Path_2273" data-name="Path 2273" d="M363.589,464.9h17.253a.984.984,0,0,1,1.116,1.125q0,5.353,0,10.707,0,8,0,16.007c0,.141.006.284-.007.424a.909.909,0,0,1-.907.893c-.715.024-1.431.007-2.146.01-.166,0-.241-.073-.241-.24,0-.468,0-.936,0-1.4,0-.173.073-.235.24-.232.283.006.565,0,.848,0,.339,0,.343,0,.343-.339q0-2.014,0-4.028,0-10.283,0-20.566c0-.088,0-.177,0-.265,0-.156-.074-.225-.227-.223-.221,0-.442,0-.663,0l-20.619,0-11.1,0c-.353,0-.354,0-.357.351,0,.274-.008.548,0,.821,0,.174-.055.264-.242.262q-.715-.007-1.431,0c-.159,0-.22-.068-.219-.223,0-.733-.007-1.467.007-2.2a.889.889,0,0,1,.767-.853,3.093,3.093,0,0,1,.5-.03Z" transform="translate(-29.859 0)" fill="#e1306c"/>
        <path id="Path_2274" data-name="Path 2274" d="M346.312,516.622q0-7.605,0-15.21a.99.99,0,0,0-1.079-1.091q-17.157,0-34.315-.009c-1.058,0-1.362.453-1.36,1.357q.021,10.957.006,21.914,0,2.424,0,4.849a.988.988,0,0,0,.558.973,1.418,1.418,0,0,0,.652.073q8.572,0,17.144,0v0h13.753c1.21,0,2.42-.008,3.63,0a.93.93,0,0,0,.893-.5,1.258,1.258,0,0,0,.116-.618Q346.309,522.492,346.312,516.622Zm-1.891,10.67c0,.263-.09.325-.336.325q-9.739-.01-19.478-.008h-12.8c-.358,0-.36,0-.36-.349q0-12.336,0-24.672c0-.371,0-.373.378-.373h16.112q8.069,0,16.139-.005c.261,0,.345.057.345.334Q344.411,514.917,344.421,527.293Z" transform="translate(0 -29.696)" fill="#e1306c"/>
        <path id="Path_2275" data-name="Path 2275" d="M539.783,544.911a3.091,3.091,0,1,1,3.1-3.078A3.117,3.117,0,0,1,539.783,544.911Z" transform="translate(-201.984 -62.337)" fill="#e1306c"/>
        <path id="Path_2276" data-name="Path 2276" d="M372.733,601.507c-1.092-1.53-1.948-3.266-2.918-4.923-.582-.93-1.063-2.661-2.349-3.647a3.968,3.968,0,0,0-2.72-.8,4.568,4.568,0,0,0-1.88.8c-1.454.972-1.961,3.9-3.056,5.243a10.438,10.438,0,0,1-1.4,1.87c-.064.052-.127.158-.219.115a33.369,33.369,0,0,1-1.664-8.482c-.046-.6-.1-1.217-.1-1.217s.751.654.9.812a12.772,12.772,0,0,0,1.629,1.587c.292.221.346.2.478-.145.038-.1.068-.2.1-.3a2.145,2.145,0,0,0-1.035-2.69,4.9,4.9,0,0,0-.848-.367c-.123-.042-.348-.012-.352-.158s.213-.183.347-.234a8.577,8.577,0,0,1,3.249-.64c.067,0,.157.035.2-.035s-.034-.148-.084-.2a5.027,5.027,0,0,0-.423-.438,2.545,2.545,0,0,0-3.261-.24,4.331,4.331,0,0,0-1.15,1.3c-.172.274-.2.271-.379-.009a5,5,0,0,0-.365-.519,2.5,2.5,0,0,0-2.243-1.007,2.962,2.962,0,0,0-1.852.933c-.048.049-.128.1-.109.17.027.1.131.06.2.069a9.476,9.476,0,0,1,3.194.979c.112.058.31.111.289.23-.025.142-.229.119-.362.147a2.971,2.971,0,0,0-1.8.971c-.119.149-.234.113-.372.062a1.8,1.8,0,0,0-1.713.209,3.133,3.133,0,0,0-.872.948c-.149.233-.177.229-.331-.011a2.185,2.185,0,0,0-2.21-.609c-.2.1-.234.206,0,.325a5.392,5.392,0,0,1,1.529.946,2.14,2.14,0,0,0-1.763,1.4,2.076,2.076,0,0,0-.07,1.066c.069.252.1.266.3.1.591-.462,2.18-1.823,2.184-1.788.176,1.277.227,1.923.324,3.208.009.125.04.369-.083.442s-.242-.074-.346-.142a1.54,1.54,0,0,0-1.631-.078,4.764,4.764,0,0,0-1.047.711,19.106,19.106,0,0,0-3.271,4.041c-.044.068-.141.138-.08.233s.161.054.246.055q1.431,0,2.862,0h16.457q4.85,0,9.7,0c.093,0,.214.04.267-.062S372.782,601.574,372.733,601.507Zm-16.682-.749c-.028.2-.123.279-.336.26a4.1,4.1,0,0,1-2.135-.769c-.908-.675-1.707-1.478-2.576-2.2a12.689,12.689,0,0,1-.833-2.385,13.669,13.669,0,0,1-.374-2.628c.17.033.678.672.753.755a10.758,10.758,0,0,0,1.23,1.238c.259.206.3.195.42-.108a1.729,1.729,0,0,0-1.207-2.446c-.131-.044-.26-.093-.451-.162a3.853,3.853,0,0,1,1.32-.477c.472-.1.451-.154.483.373a3.224,3.224,0,0,0,.123.728c.078.262.112.277.328.1.815-.675,1.633-1.349,2.483-1.98.283-.21.47-.347.516,0,.119.909.068.583.174,1.494.091.777.181,1.723.248,2.755A35.639,35.639,0,0,1,356.051,600.757Z" transform="translate(-30.135 -106.022)" fill="#e1306c"/>
        <path id="Path_2281" data-name="Path 2281" d="M.353-.058A.4.4,0,0,1,.759.314c0,.2-.237.518-.453.518S0,.514,0,.314A.352.352,0,0,1,.353-.058Z" transform="translate(326.198 485.534)" fill="#e1306c"/>
        <path id="Path_2279" data-name="Path 2279" d="M.617-.186c.305,0,.488.335.488.628a.542.542,0,0,1-.553.53A.542.542,0,0,1,0,.443.691.691,0,0,1,.617-.186Z" transform="translate(324.951 485.705)" fill="#e1306c"/>
        <path id="Path_2280" data-name="Path 2280" d="M.571-.254a.636.636,0,0,1,.69.586c0,.355-.232.755-.593.755A.632.632,0,0,1,0,.479C0,.125.21-.254.571-.254Z" transform="translate(326.198 486.353)" fill="#e1306c"/>
        <path id="Path_2283" data-name="Path 2283" d="M.344-.2A.321.321,0,0,1,.658.122.383.383,0,0,1,.311.477.311.311,0,0,1,0,.166.39.39,0,0,1,.344-.2Z" transform="translate(319.466 487.837)" fill="#e1306c"/>
        <path id="Path_2278" data-name="Path 2278" d="M.5,0c.415,0,.728.611.728,1.04S.917,1.554.5,1.554A.661.661,0,0,1-.2.85.791.791,0,0,1,.5,0Z" transform="translate(325.052 486.492)" fill="#e1306c"/>
        <path id="Path_2285" data-name="Path 2285" d="M.415.215c.168,0,.267.193.267.361S.5.835.331.835A.259.259,0,0,1,.038.576.427.427,0,0,1,.415.215Z" transform="translate(318.986 488.134)" fill="#e1306c"/>
        <path id="Path_2282" data-name="Path 2282" d="M.378.134a.283.283,0,0,1,.307.3.412.412,0,0,1-.349.4A.4.4,0,0,1,0,.434C0,.249.193.134.378.134Z" transform="translate(319.668 487.912)" fill="#e1306c"/>
        <path id="Path_2284" data-name="Path 2284" d="M.245-.085c.127,0,.177.128.177.255A.3.3,0,0,1,.158.441C.031.441-.054.3-.054.17S.118-.085.245-.085Z" transform="translate(319.125 487.963)" fill="#e1306c"/>
        <path id="Path_2277" data-name="Path 2277" d="M323.139,484.992" transform="translate(-0.35 -0.517)" fill="none" stroke="#707070" stroke-width="1"/>
      </g>
      <text id="Normal" transform="translate(5542 8343.848)" fill="#e1306c" font-size="14" font-family="ArialMT, Arial"><tspan x="0" y="0">Normal</tspan></text>
    </g>
    <g id="noun_done_1382561" transform="translate(7836.705 8877.113)">
      <g id="Ellipse_410" data-name="Ellipse 410" transform="translate(1.5 1.887)" fill="#fff" stroke="#707070" stroke-width="1">
        <circle cx="7" cy="7" r="7" stroke="none"/>
        <circle cx="7" cy="7" r="6.5" fill="none"/>
      </g>
      <g id="Group_34" data-name="Group 34">
        <path id="Path_172" data-name="Path 172" d="M10,17.5A8.512,8.512,0,0,0,18.5,26h0A8.512,8.512,0,0,0,27,17.5h0A8.512,8.512,0,0,0,18.5,9h0A8.512,8.512,0,0,0,10,17.5Zm4.167-.415a.926.926,0,0,1,1.327,0l1.223,1.223a.451.451,0,0,0,.622,0l4.167-4.167a.938.938,0,1,1,1.327,1.327L17.691,20.61a.926.926,0,0,1-1.327,0l-2.2-2.2A.926.926,0,0,1,14.167,17.085Z" transform="translate(-10 -9)" fill="url(#linear-gradient)"/>
      </g>
    </g>
  </g>
</svg>
