<svg xmlns="http://www.w3.org/2000/svg" width="16.635" height="16.634" viewBox="0 0 16.635 16.634">
  <g id="round-arrow_back_ios-24px" transform="translate(0 16.634) rotate(-90)">
    <g id="Bounding_Boxes" transform="translate(0 0)">
      <path id="Path_5" data-name="Path 5" d="M0,0H16.634V16.634H0Z" transform="translate(0 0)" fill="none" opacity="0.87"/>
    </g>
    <g id="Rounded" transform="translate(4.33 1.818)">
      <path id="Path_6" data-name="Path 6" d="M7.189.255h0a.866.866,0,0,0-1.227,0L.2,6.014a.69.69,0,0,0,0,.977l5.76,5.76a.866.866,0,0,0,1.227,0h0a.866.866,0,0,0,0-1.227L2.171,6.5,7.2,1.475A.864.864,0,0,0,7.189.255Z" fill="#202124"/>
    </g>
  </g>
</svg>
