<svg xmlns="http://www.w3.org/2000/svg" width="26" height="26" viewBox="0 0 26 26">
    <defs>
        <linearGradient id="a" x1="0%" x2="99.869%" y1="50%" y2="50%">
            <stop offset="0%" stop-color="#E82064"/>
            <stop offset="10%" stop-color="#E92B6B"/>
            <stop offset="28%" stop-color="#EA3A76"/>
            <stop offset="43%" stop-color="#EB407A"/>
            <stop offset="100%" stop-color="#AE529E"/>
        </linearGradient>
        <linearGradient id="b" x1="-.096%" y1="50.048%" y2="50.048%">
            <stop offset="0%" stop-color="#E82064"/>
            <stop offset="10%" stop-color="#E92B6B"/>
            <stop offset="28%" stop-color="#EA3A76"/>
            <stop offset="43%" stop-color="#EB407A"/>
            <stop offset="100%" stop-color="#AE529E"/>
        </linearGradient>
    </defs>
    <g fill="none" fill-rule="evenodd">
        <path fill="url(#a)" d="M18.24 7.43a5.41 5.41 0 1 0-5.41 5.42 5.42 5.42 0 0 0 5.41-5.42zM0 24.9c.07-.5.12-1 .21-1.51A12.54 12.54 0 0 1 3 17.46a12.76 12.76 0 0 1 5.5-3.85l.12-.06-.17-.15a7.37 7.37 0 0 1-1.82-10A7.22 7.22 0 0 1 12.4 0h.5a13.31 13.31 0 0 1 1.56.22A7.14 7.14 0 0 1 20 5.6a7.1 7.1 0 0 1-2.26 7.4A6.93 6.93 0 0 1 13 14.84a10.89 10.89 0 0 0-5.63 1.49A10.72 10.72 0 0 0 2 25.3c0 .41 0 .38-.38.38L0 25.7v-.8z"/>
        <path fill="url(#b)" d="M25.7 21.49h-4.2v4.17h-2v-4.18h-4.22v-.85-.9c0-.3.06-.27.27-.27h3.94v-4.19h2v3.86c0 .33 0 .33.35.33h3.86v2.03z"/>
    </g>
</svg>
