<svg xmlns="http://www.w3.org/2000/svg" width="24.629" height="16.419" viewBox="0 0 24.629 16.419">
  <path id="Icon_awesome-ticket-alt" data-name="Icon awesome-ticket-alt" d="M5.473,8.6H19.156v8.21H5.473Zm17.1,4.1a2.052,2.052,0,0,0,2.052,2.052v4.1a2.052,2.052,0,0,1-2.052,2.052H2.052A2.052,2.052,0,0,1,0,18.867v-4.1A2.052,2.052,0,0,0,2.052,12.71,2.052,2.052,0,0,0,0,10.657v-4.1A2.052,2.052,0,0,1,2.052,4.5H22.576a2.052,2.052,0,0,1,2.052,2.052v4.1A2.052,2.052,0,0,0,22.576,12.71ZM20.524,8.263A1.026,1.026,0,0,0,19.5,7.237H5.131A1.026,1.026,0,0,0,4.1,8.263v8.894a1.026,1.026,0,0,0,1.026,1.026H19.5a1.026,1.026,0,0,0,1.026-1.026Z" transform="translate(0 -4.5)" fill="#E82064"/>
</svg>
