<svg xmlns="http://www.w3.org/2000/svg" width="50" height="50" viewBox="0 0 50 50">
  <path id="Icon_ionic-ios-heart" data-name="Icon ionic-ios-heart" d="M25.3,3.938h-.072a8.135,8.135,0,0,0-6.851,3.9,8.135,8.135,0,0,0-6.851-3.9h-.072a8.325,8.325,0,0,0-8.077,8.475,18.727,18.727,0,0,0,3.447,9.952c4.341,6.173,11.553,11.573,11.553,11.573s7.212-5.4,11.553-11.573a18.727,18.727,0,0,0,3.447-9.952A8.325,8.325,0,0,0,25.3,3.938Z" transform="translate(0 0)" fill="none" stroke="#fff" stroke-width="3"/>
</svg>
