<svg xmlns="http://www.w3.org/2000/svg" xmlns:xlink="http://www.w3.org/1999/xlink" width="60" height="60.249" viewBox="0 0 60 60.249">
  <defs>
    <filter id="Icon_ionic-ios-heart" x="0" y="0" width="60" height="60.249" filterUnits="userSpaceOnUse">
      <feOffset input="SourceAlpha"/>
      <feGaussianBlur stdDeviation="3" result="blur"/>
      <feFlood flood-opacity="0.49"/>
      <feComposite operator="in" in2="blur"/>
      <feComposite in="SourceGraphic"/>
    </filter>
  </defs>
  <g transform="matrix(1, 0, 0, 1, 0, 0)" filter="url(#Icon_ionic-ios-heart)">
    <path id="Icon_ionic-ios-heart-2" data-name="Icon ionic-ios-heart" d="M32.606,3.938h-.1a10.847,10.847,0,0,0-9.135,5.2,10.847,10.847,0,0,0-9.135-5.2h-.1a11.1,11.1,0,0,0-10.769,11.3,24.97,24.97,0,0,0,4.6,13.27c5.788,8.23,15.4,15.43,15.4,15.43s9.615-7.2,15.4-15.43a24.97,24.97,0,0,0,4.6-13.27A11.1,11.1,0,0,0,32.606,3.938Z" transform="translate(6.63 6.06)" fill="none" stroke="#fff" stroke-width="2"/>
  </g>
</svg>
