<svg xmlns="http://www.w3.org/2000/svg" width="25.32" height="23.372" viewBox="0 0 25.32 23.372">
  <g id="Icon_ionic-md-chatboxes" data-name="Icon ionic-md-chatboxes" transform="translate(-3.375 -4.5)">
    <path id="Path_1468" data-name="Path 1468" d="M24.285,4.5H3.96a.586.586,0,0,0-.585.5V18.035a.61.61,0,0,0,.585.525H7.453V23.97l5.486-5.411H24.285a.491.491,0,0,0,.453-.525V5A.466.466,0,0,0,24.285,4.5Z" transform="translate(0)" fill="#E82064"/>
    <path id="Path_1469" data-name="Path 1469" d="M29.471,8.93H27.5V19.068c0,.973-.421,1.609-1.531,1.609h-11L12.6,23.05h7.893l5.485,5.417V23.05h3.493a.5.5,0,0,0,.463-.528V9.484A.527.527,0,0,0,29.471,8.93Z" transform="translate(-1.239 -0.595)" fill="#E82064"/>
  </g>
</svg>
