<svg xmlns="http://www.w3.org/2000/svg" width="23.295" height="23.295" viewBox="0 0 23.295 23.295">
  <g id="Icon_feather-settings" data-name="Icon feather-settings" transform="translate(-0.5 -0.5)">
    <path id="Path_1471" data-name="Path 1471" d="M19.308,16.4a2.9,2.9,0,1,1-2.9-2.9A2.9,2.9,0,0,1,19.308,16.4Z" transform="translate(-4.256 -4.256)" fill="none" stroke="#E82064" stroke-linecap="round" stroke-linejoin="round" stroke-width="2"/>
    <path id="Path_1472" data-name="Path 1472" d="M19.31,15.051a1.6,1.6,0,0,0,.319,1.762l.058.058a1.937,1.937,0,1,1-2.739,2.739l-.058-.058a1.61,1.61,0,0,0-2.73,1.142v.165a1.936,1.936,0,1,1-3.872,0v-.087A1.6,1.6,0,0,0,9.244,19.31a1.6,1.6,0,0,0-1.762.319l-.058.058a1.937,1.937,0,1,1-2.739-2.739l.058-.058A1.61,1.61,0,0,0,3.6,14.161H3.436a1.936,1.936,0,1,1,0-3.872h.087A1.6,1.6,0,0,0,4.985,9.244a1.6,1.6,0,0,0-.319-1.762l-.058-.058A1.937,1.937,0,1,1,7.346,4.685l.058.058a1.6,1.6,0,0,0,1.762.319h.077A1.6,1.6,0,0,0,10.212,3.6V3.436a1.936,1.936,0,1,1,3.872,0v.087a1.61,1.61,0,0,0,2.73,1.142l.058-.058A1.937,1.937,0,1,1,19.61,7.346l-.058.058a1.6,1.6,0,0,0-.319,1.762v.077a1.6,1.6,0,0,0,1.462.968h.165a1.936,1.936,0,1,1,0,3.872h-.087a1.6,1.6,0,0,0-1.462.968Z" fill="none" stroke="#E82064" stroke-linecap="round" stroke-linejoin="round" stroke-width="2"/>
  </g>
</svg>
