<svg xmlns="http://www.w3.org/2000/svg" xmlns:xlink="http://www.w3.org/1999/xlink" width="15.784" height="18.619" viewBox="0 0 15.784 18.619">
  <defs>
    <clipPath id="clip-path">
      <rect id="Rectangle_2077" data-name="Rectangle 2077" width="15.784" height="18.619" fill="#a6adb4" stroke="#a6adb4" stroke-width="1"/>
    </clipPath>
  </defs>
  <g id="Group_2790" data-name="Group 2790" transform="translate(0)">
    <g id="Group_2704" data-name="Group 2704" transform="translate(0 0)">
      <g id="Group_2703" data-name="Group 2703" transform="translate(0)" clip-path="url(#clip-path)">
        <path id="Path_1436" data-name="Path 1436" d="M217.748,238.443h.123a3.544,3.544,0,0,0,2.708-1.171c1.478-1.667,1.233-4.524,1.206-4.8a3.918,3.918,0,0,0-1.862-3.483,4.27,4.27,0,0,0-2.066-.542h-.065a4.277,4.277,0,0,0-2.066.526,3.92,3.92,0,0,0-1.886,3.5c-.027.273-.273,3.13,1.206,4.8a3.529,3.529,0,0,0,2.7,1.171Zm-2.884-5.872c0-.011,0-.023,0-.031.127-2.754,2.082-3.049,2.919-3.049h.046c1.037.023,2.8.446,2.919,3.049a.073.073,0,0,0,0,.031c0,.027.273,2.638-.949,4.013a2.517,2.517,0,0,1-1.978.822h-.038a2.509,2.509,0,0,1-1.974-.822c-1.217-1.367-.956-3.99-.952-4.013Zm0,0" transform="translate(-209.928 -228.423)" fill="#a6adb4" stroke="#a6adb4" stroke-width="1"/>
        <path id="Path_1437" data-name="Path 1437" d="M148.775,440.622v-.011c0-.031,0-.062,0-.1-.023-.76-.073-2.539-1.74-3.107l-.038-.012a11.085,11.085,0,0,1-3.188-1.452.518.518,0,0,0-.6.849,11.974,11.974,0,0,0,3.507,1.6c.895.319.995,1.275,1.021,2.151a.751.751,0,0,0,0,.1,6.992,6.992,0,0,1-.081,1.187,15.336,15.336,0,0,1-13.545,0,6.592,6.592,0,0,1-.081-1.187c0-.031,0-.061,0-.1.027-.875.127-1.832,1.022-2.151a12.064,12.064,0,0,0,3.506-1.6.518.518,0,0,0-.6-.849,10.959,10.959,0,0,1-3.188,1.452l-.038.011c-1.667.572-1.717,2.35-1.74,3.107a.777.777,0,0,1,0,.1v.012a5.887,5.887,0,0,0,.2,1.74.492.492,0,0,0,.2.242,16.224,16.224,0,0,0,14.993,0,.513.513,0,0,0,.2-.242,6.183,6.183,0,0,0,.184-1.736Zm0,0" transform="translate(-133.001 -425.863)" fill="#a6adb4" stroke="#a6adb4" stroke-width="1"/>
      </g>
    </g>
  </g>
</svg>
