<svg xmlns="http://www.w3.org/2000/svg" width="66.756" height="58.412" viewBox="0 0 66.756 58.412">
  <path id="Icon_metro-image" data-name="Icon metro-image" d="M65.147,8.028l.008.008V58.088l-.008.008H6.75l-.007-.008V8.036l.007-.007Zm.008-4.172H6.743A4.185,4.185,0,0,0,2.571,8.028V58.1a4.185,4.185,0,0,0,4.172,4.172H65.155A4.185,4.185,0,0,0,69.327,58.1V8.028A4.185,4.185,0,0,0,65.155,3.856Zm-8.345,14.6A6.258,6.258,0,1,1,50.552,12.2a6.258,6.258,0,0,1,6.258,6.258Zm4.172,35.464H10.915V45.579l14.6-25.034L42.207,41.406h4.172l14.6-12.517Z" transform="translate(-2.571 -3.856)" fill="#a6adb4"/>
</svg>
