<svg xmlns="http://www.w3.org/2000/svg" width="24.701" height="20.574" viewBox="0 0 24.701 20.574">
  <g id="Icon_feather-camera" data-name="Icon feather-camera" transform="translate(-0.5 -3.5)">
    <path id="Path_1508" data-name="Path 1508" d="M24.2,21.01a2.064,2.064,0,0,1-2.064,2.064H3.564A2.064,2.064,0,0,1,1.5,21.01V9.659A2.064,2.064,0,0,1,3.564,7.6H7.691L9.755,4.5h6.191L18.01,7.6h4.128A2.064,2.064,0,0,1,24.2,9.659Z" fill="none" stroke="#fff" stroke-linecap="round" stroke-linejoin="round" stroke-width="2"/>
    <path id="Path_1509" data-name="Path 1509" d="M20.255,17.628A4.128,4.128,0,1,1,16.128,13.5,4.128,4.128,0,0,1,20.255,17.628Z" transform="translate(-3.277 -2.809)" fill="none" stroke="#fff" stroke-linecap="round" stroke-linejoin="round" stroke-width="2"/>
  </g>
</svg>
