<svg id="Group_3076" data-name="Group 3076" xmlns="http://www.w3.org/2000/svg" xmlns:xlink="http://www.w3.org/1999/xlink" width="24.62" height="25.01" viewBox="0 0 24.62 25.01">
  <defs>
    <clipPath id="clip-path">
      <rect id="Rectangle_2276" data-name="Rectangle 2276" width="24.62" height="25.01" fill="#16b53a"/>
    </clipPath>
  </defs>
  <path id="Path_1495" data-name="Path 1495" d="M455.773,479.2c-1.137-2.953-1.647-4.83-1.674-4.93a.814.814,0,0,1,1.573-.423c.011.044.444,1.617,1.386,4.13a1.98,1.98,0,0,0-1.284,1.223Zm0,0" transform="translate(-448.218 -473.172)" fill="#16b53a"/>
  <path id="Path_1496" data-name="Path 1496" d="M371.956,563.588a1.989,1.989,0,0,0,1.355.706,74.892,74.892,0,0,0,5.506,9.47l-.293,2.109a2.276,2.276,0,0,0-.02.269,77.859,77.859,0,0,1-8.263-14.6Zm0,0" transform="translate(-361.448 -552.483)" fill="#16b53a"/>
  <g id="Group_3075" data-name="Group 3075" transform="translate(0)">
    <g id="Group_3074" data-name="Group 3074" clip-path="url(#clip-path)">
      <path id="Path_1497" data-name="Path 1497" d="M380.356,516.659a2.066,2.066,0,0,1-.136.171l-2.9.249a2.109,2.109,0,1,1,3.039-.42Zm0,0" transform="translate(-364.018 -509.176)" fill="#16b53a"/>
      <path id="Path_1498" data-name="Path 1498" d="M306.122,539.059l2.9-1.437-2.382-2.709-2.238,1.338q-.5-.947-.948-1.859l2.258-.8,1.279-.454-4.248.471h0a1.031,1.031,0,0,1-.892-.358h0l-2.609-3.118a1.018,1.018,0,0,1,1.56-1.307h0l2.26,2.7c4.79-.531,4.357-.484,4.438-.489l.57-.5a1.425,1.425,0,0,1,2.011.129l4.861,5.526h0a1.221,1.221,0,0,1,.049,1.477l-3.34,4.7-.592,4.261a1.221,1.221,0,1,1-2.419-.335l.632-4.557a1.219,1.219,0,0,1,.214-.539l3.513-4.948-4.179,4.2-.666.331.194.6c-.038.155-.029.124-.181,1.219-.775-1.167-1.5-2.33-2.163-3.472a1.212,1.212,0,0,1,.124-.072Zm0,0" transform="translate(-290.59 -522.772)" fill="#16b53a"/>
    </g>
  </g>
  <path id="Path_1499" data-name="Path 1499" d="M406.818,483.36a.542.542,0,0,1,.519-.038l1.076.489a4.4,4.4,0,0,1,2.579,4v1.662a2.163,2.163,0,0,0,.672,1.567l1.811,1.725a7.931,7.931,0,0,1,2.123,3.448l.4,1.313a7.932,7.932,0,0,0,.965,2.062l1.228,1.867a7.929,7.929,0,0,1,.875,1.781l1.077,3.134a.544.544,0,0,1-.514.72H407.112a.544.544,0,0,1-.543-.544V483.817a.544.544,0,0,1,.249-.457Zm0,0" transform="translate(-406.497 -482.182)" fill="#16b53a"/>
</svg>
