<svg xmlns="http://www.w3.org/2000/svg" width="72" height="72" viewBox="0 0 72 72">
    <g fill="none" fill-rule="evenodd">
        <rect width="72" height="72" fill="#FFF" rx="3"/>
        <g fill="#969696" fill-rule="nonzero">
            <path d="M34.38 24.082l-5.584 5.595c-2.057 2.062-4.126 4.123-6.172 6.208a3.848 3.848 0 0 0-.988 1.802c-.74 3.404-1.457 6.808-2.175 10.213l-.4 1.884c-.187.92.06 1.838.683 2.462A2.62 2.62 0 0 0 21.6 53c.2 0 .4-.024.6-.059l2.069-.436c3.292-.695 6.595-1.401 9.887-2.085a3.833 3.833 0 0 0 1.964-1.06c9.24-9.27 18.482-18.528 27.722-27.775.682-.683 1.059-1.496 1.153-2.497.011-.165 0-.33-.036-.483-.058-.236-.105-.483-.164-.719-.13-.6-.27-1.284-.553-1.943-1.728-3.958-4.597-6.785-8.524-8.375-.787-.318-1.622-.424-2.35-.518l-.2-.024c-1.059-.13-2.023.224-2.858 1.072-5.29 5.324-10.616 10.66-15.93 15.984zm18.4-14.217h.059l.2.023c.611.071 1.176.142 1.622.33 3.198 1.296 5.55 3.605 6.972 6.856.165.377.27.86.376 1.366.036.188.083.377.118.565a.895.895 0 0 1-.294.507c-9.253 9.247-18.494 18.517-27.734 27.775a.927.927 0 0 1-.506.271l-9.9 2.085-1.74.365.33-1.543c.717-3.392 1.434-6.797 2.163-10.189.024-.106.118-.27.224-.389 2.045-2.073 4.091-4.134 6.148-6.184l5.585-5.595c5.326-5.336 10.652-10.672 15.966-16.02.223-.188.329-.223.411-.223z"/>
            <path d="M11.61 19.914h20.687a1.456 1.456 0 1 0 0-2.914H11.61A4.614 4.614 0 0 0 7 21.608v38.784A4.614 4.614 0 0 0 11.61 65h38.78A4.614 4.614 0 0 0 55 60.392V40.55a1.456 1.456 0 1 0-2.915 0v19.842c0 .936-.77 1.706-1.706 1.706h-38.77c-.936 0-1.706-.77-1.706-1.706V21.62c0-.936.77-1.706 1.706-1.706z"/>
        </g>
    </g>
</svg>
