<svg xmlns="http://www.w3.org/2000/svg" width="42" height="42" viewBox="0 0 42 42">
    <g fill="#969696" fill-rule="nonzero">
        <path d="M20.65 1.2a19.45 19.45 0 1 0 19.44 19.45C40.073 9.919 31.381 1.222 20.65 1.2zm0 40.09a20.65 20.65 0 1 1 20.64-20.64c-.017 11.392-9.248 20.623-20.64 20.64z"/>
        <path d="M20.65 1.2a19.45 19.45 0 1 0 19.44 19.45C40.073 9.919 31.381 1.222 20.65 1.2zm0 40.09a20.65 20.65 0 1 1 20.64-20.64c-.017 11.392-9.248 20.623-20.64 20.64z"/>
        <path d="M15.84 17.65a.61.61 0 0 1-.42-.16c-3.29-3.1-6.84-.11-7 0a.61.61 0 0 1-.85-.06.6.6 0 0 1 .06-.85s4.5-3.83 8.6 0a.6.6 0 0 1 0 .85.58.58 0 0 1-.39.22z"/>
        <path d="M15.84 17.65a.61.61 0 0 1-.42-.16c-3.29-3.1-6.84-.11-7 0a.61.61 0 0 1-.85-.06.6.6 0 0 1 .06-.85s4.5-3.83 8.6 0a.6.6 0 0 1 0 .85.58.58 0 0 1-.39.22zM33.25 17.65a.59.59 0 0 1-.41-.16c-3.3-3.1-6.84-.11-7 0a.603.603 0 0 1-.79-.91c.05 0 4.51-3.83 8.6 0a.59.59 0 0 1 0 .85.62.62 0 0 1-.4.22z"/>
        <path d="M33.25 17.65a.59.59 0 0 1-.41-.16c-3.3-3.1-6.84-.11-7 0a.603.603 0 0 1-.79-.91c.05 0 4.51-3.83 8.6 0a.59.59 0 0 1 0 .85.62.62 0 0 1-.4.22zM20.52 33.22a18.57 18.57 0 0 1-3.64-.36 12.63 12.63 0 0 1-6.47-3.18 9.3 9.3 0 0 1-2.73-6A.58.58 0 0 1 8.1 23c.26 0 .49.2.52.54A8 8 0 0 0 11 28.73c3.35 3.3 9.2 3.63 12.31 3.05 4.22-.79 7.43-4 8.57-8.67.08-.32.34-.49.59-.39a.64.64 0 0 1 .31.75C31.51 28.56 28 32.11 23.43 33a15.93 15.93 0 0 1-2.91.22z"/>
        <path d="M20.52 33.22a18.57 18.57 0 0 1-3.64-.36 12.63 12.63 0 0 1-6.47-3.18 9.3 9.3 0 0 1-2.73-6A.58.58 0 0 1 8.1 23c.26 0 .49.2.52.54A8 8 0 0 0 11 28.73c3.35 3.3 9.2 3.63 12.31 3.05 4.22-.79 7.43-4 8.57-8.67.08-.32.34-.49.59-.39a.64.64 0 0 1 .31.75C31.51 28.56 28 32.11 23.43 33a15.93 15.93 0 0 1-2.91.22z"/>
    </g>
</svg>
