<svg id="Group_2789" data-name="Group 2789" xmlns="http://www.w3.org/2000/svg" width="14.754" height="16.647" viewBox="0 0 14.754 16.647">
  <path id="Path_1430" data-name="Path 1430" d="M293.445,414.618a.379.379,0,0,0,.757,0,1.88,1.88,0,0,1,.442-1.211,7.831,7.831,0,0,0,1.413-2.426.38.38,0,0,0-.358-.505h-3.754a.383.383,0,0,0-.309.161.375.375,0,0,0-.047.344A7.789,7.789,0,0,0,293,413.407a1.879,1.879,0,0,1,.444,1.211Zm0,0" transform="translate(-286.446 -406.675)" fill="#a6adb4"/>
  <path id="Path_1431" data-name="Path 1431" d="M291.8,422.783a.379.379,0,0,0-.757,0,1.965,1.965,0,0,1-.919,1.524,9.935,9.935,0,0,0-2.815,3.018.379.379,0,0,0,.329.566h7.566a.379.379,0,0,0,.327-.189.375.375,0,0,0,0-.377,9.935,9.935,0,0,0-2.815-3.018,1.959,1.959,0,0,1-.918-1.524Zm0,0" transform="translate(-284.048 -413.323)" fill="#a6adb4"/>
  <path id="Path_1432" data-name="Path 1432" d="M294,417.023h-.227a12.508,12.508,0,0,0-3.323-6.81,12.508,12.508,0,0,0,3.323-6.81H294a.757.757,0,1,0,0-1.513H280.756a.757.757,0,0,0,0,1.513h.227a12.509,12.509,0,0,0,3.325,6.81,12.522,12.522,0,0,0-3.325,6.81h-.227a.757.757,0,0,0,0,1.513H294a.757.757,0,1,0,0-1.513Zm-11.5,0c.285-2.66,2.014-4.709,3.306-6.24l.069-.083a.754.754,0,0,0,0-.976l-.069-.081c-1.292-1.53-3.021-3.58-3.306-6.24h9.755c-.284,2.66-2.013,4.709-3.307,6.24l-.067.081a.753.753,0,0,0,0,.976l.069.083c1.292,1.53,3.021,3.58,3.3,6.24Zm0,0" transform="translate(-280 -401.89)" fill="#a6adb4"/>
</svg>
