<svg xmlns="http://www.w3.org/2000/svg" xmlns:xlink="http://www.w3.org/1999/xlink" width="183" height="183.374" viewBox="0 0 183 183.374"><defs><style>.a{fill:rgba(240,240,240,0.05);stroke:#fff;stroke-width:3px;}.b{filter:url(#a);}</style><filter id="a" x="0" y="0" width="183" height="183.374" filterUnits="userSpaceOnUse"><feOffset input="SourceAlpha"/><feGaussianBlur stdDeviation="5" result="b"/><feFlood/><feComposite operator="in" in2="b"/><feComposite in="SourceGraphic"/></filter></defs><g class="b" transform="matrix(1, 0, 0, 1, 0, 0)"><path class="a" d="M112.99,3.938h-.361c-14.315,0-26.971,7.875-34.255,19.5-7.284-11.625-19.94-19.5-34.255-19.5H43.76C21.44,4.162,3.375,23.025,3.375,46.313c0,13.875,5.841,33.562,17.236,49.762,21.707,30.863,57.764,57.863,57.764,57.863s36.058-27,57.764-57.863c11.394-16.2,17.236-35.887,17.236-49.762C153.375,23.025,135.31,4.162,112.99,3.938Z" transform="translate(13.13 12.56)"/></g></svg>