<svg xmlns="http://www.w3.org/2000/svg" width="37.294" height="37.3" viewBox="0 0 37.294 37.3">
  <g id="Icon_ionic-ios-chatboxes" data-name="Icon ionic-ios-chatboxes" transform="translate(-3.375 -3.375)">
    <path id="Path_1542" data-name="Path 1542" d="M34.973,11.981H15.1A3.421,3.421,0,0,0,11.686,15.4V29.234A3.414,3.414,0,0,0,15.1,32.641h11.37a.98.98,0,0,1,.681.287l5.649,5.21c.314.3.834.179.834-.26V33.341c0-.538.341-.708.879-.708h.09a3.732,3.732,0,0,0,3.775-3.407V15.4A3.4,3.4,0,0,0,34.973,11.981Z" transform="translate(2.288 2.369)"  fill="#1B75BB"/>
    <path id="Path_1543" data-name="Path 1543" d="M14.709,12.154H30.617V6.3a2.924,2.924,0,0,0-2.923-2.923H6.3A2.924,2.924,0,0,0,3.375,6.3V21.112A2.924,2.924,0,0,0,6.3,24.035h5.479V15.077A2.937,2.937,0,0,1,14.709,12.154Z"  fill="#1B75BB"/>
  </g>
</svg>
