<svg id="artwork" xmlns="http://www.w3.org/2000/svg" viewBox="0 0 39.97 33.08"><defs><style>.cls-1{fill:#42a0f0;}.cls-2{fill:#1976cd;}.cls-3{fill:#2191ee;}</style></defs><title>AVE-re13</title><path class="cls-1" d="M39.66.12A.63.63,0,0,0,39,.05L4.13,14.14,0,15.85l12.49,5.06h0l3.34,11.66a.68.68,0,0,0,.49.48.69.69,0,0,0,.66-.18l7-7.12,9.39,3.7a1.38,1.38,0,0,0,1.19-.08,1.34,1.34,0,0,0,.67-1L40,.84A.68.68,0,0,0,39.66.12ZM19.42,23.92v-.05h0Z"/><path class="cls-2" d="M24,25.76l-7,7.12a.73.73,0,0,0,.17-.31l2.25-8.65,0-.05,3,1.26,1.33.56Z"/><path class="cls-3" d="M39.71.16,19.45,23.87h0v.05l-2.25,8.65a.73.73,0,0,1-.17.31.69.69,0,0,1-.66.18.68.68,0,0,1-.49-.48L12.51,20.92h0Z"/></svg>